<mxfile host="app.diagrams.net" modified="2024-06-22T12:17:41.985Z" agent="Mozilla/5.0 (Windows NT 10.0; Win64; x64) AppleWebKit/537.36 (KHTML, like Gecko) Chrome/126.0.0.0 Safari/537.36" etag="AQh93dbiJyTOOrEbqij_" version="24.5.2" type="device">
  <diagram id="v2BdjNKi6aYFktt5PRsA" name="Page-1">
    <mxGraphModel dx="1318" dy="541" grid="1" gridSize="10" guides="1" tooltips="1" connect="1" arrows="1" fold="1" page="1" pageScale="1" pageWidth="827" pageHeight="1169" math="0" shadow="0">
      <root>
        <mxCell id="0" />
        <mxCell id="1" parent="0" />
        <mxCell id="8eON6J5FQiFvgld2o6Tk-5" style="edgeStyle=orthogonalEdgeStyle;rounded=0;orthogonalLoop=1;jettySize=auto;html=1;exitX=1;exitY=0.5;exitDx=0;exitDy=0;entryX=0;entryY=0.5;entryDx=0;entryDy=0;" parent="1" source="8eON6J5FQiFvgld2o6Tk-1" target="8eON6J5FQiFvgld2o6Tk-2" edge="1">
          <mxGeometry relative="1" as="geometry" />
        </mxCell>
        <mxCell id="8eON6J5FQiFvgld2o6Tk-1" value="Dosen Menjelaskan Materi" style="rounded=0;whiteSpace=wrap;html=1;" parent="1" vertex="1">
          <mxGeometry x="30" y="240" width="120" height="80" as="geometry" />
        </mxCell>
        <mxCell id="8eON6J5FQiFvgld2o6Tk-6" style="edgeStyle=orthogonalEdgeStyle;rounded=0;orthogonalLoop=1;jettySize=auto;html=1;exitX=1;exitY=0.5;exitDx=0;exitDy=0;" parent="1" source="8eON6J5FQiFvgld2o6Tk-2" target="8eON6J5FQiFvgld2o6Tk-3" edge="1">
          <mxGeometry relative="1" as="geometry" />
        </mxCell>
        <mxCell id="8eON6J5FQiFvgld2o6Tk-2" value="Mahasiswa Melakukan Latihan" style="rounded=0;whiteSpace=wrap;html=1;" parent="1" vertex="1">
          <mxGeometry x="210" y="240" width="116.5" height="80" as="geometry" />
        </mxCell>
        <mxCell id="8eON6J5FQiFvgld2o6Tk-3" value="Dosen Melakukan Evalaluasi dan Penilaian" style="rounded=0;whiteSpace=wrap;html=1;" parent="1" vertex="1">
          <mxGeometry x="390" y="240" width="150" height="80" as="geometry" />
        </mxCell>
        <mxCell id="8eON6J5FQiFvgld2o6Tk-8" value="&lt;font style=&quot;font-size: 14px;&quot;&gt;Game&lt;/font&gt;" style="rounded=0;whiteSpace=wrap;html=1;" parent="1" vertex="1">
          <mxGeometry x="293" y="400" width="120" height="60" as="geometry" />
        </mxCell>
        <mxCell id="8eON6J5FQiFvgld2o6Tk-9" value="" style="endArrow=classic;html=1;rounded=0;exitX=0.5;exitY=0;exitDx=0;exitDy=0;entryX=0.678;entryY=1.038;entryDx=0;entryDy=0;entryPerimeter=0;" parent="1" source="8eON6J5FQiFvgld2o6Tk-8" target="8eON6J5FQiFvgld2o6Tk-2" edge="1">
          <mxGeometry width="50" height="50" relative="1" as="geometry">
            <mxPoint x="430" y="400" as="sourcePoint" />
            <mxPoint x="480" y="350" as="targetPoint" />
          </mxGeometry>
        </mxCell>
        <mxCell id="8eON6J5FQiFvgld2o6Tk-11" value="Latihan dapat digantikan oleh Game pada Lantai 1 sampai 3" style="text;html=1;align=center;verticalAlign=middle;whiteSpace=wrap;rounded=0;" parent="1" vertex="1">
          <mxGeometry x="161.25" y="310" width="131.75" height="90" as="geometry" />
        </mxCell>
        <mxCell id="hPN1Kjeh4t1sL5qKdAIn-2" value="" style="endArrow=classic;html=1;rounded=0;exitX=0.5;exitY=0;exitDx=0;exitDy=0;entryX=0.25;entryY=1;entryDx=0;entryDy=0;" edge="1" parent="1" source="8eON6J5FQiFvgld2o6Tk-8" target="8eON6J5FQiFvgld2o6Tk-3">
          <mxGeometry width="50" height="50" relative="1" as="geometry">
            <mxPoint x="535" y="455" as="sourcePoint" />
            <mxPoint x="649" y="330" as="targetPoint" />
          </mxGeometry>
        </mxCell>
        <mxCell id="hPN1Kjeh4t1sL5qKdAIn-3" value="Evaluasi dan penilaian dapat digantikan pada Dashboard Admin" style="text;html=1;align=center;verticalAlign=middle;whiteSpace=wrap;rounded=0;" vertex="1" parent="1">
          <mxGeometry x="413" y="330" width="110" height="70" as="geometry" />
        </mxCell>
      </root>
    </mxGraphModel>
  </diagram>
</mxfile>
